<?xml version="1.0" encoding="UTF-8"?>
<svg version="1.1" viewBox="0 0 1030 824" width="1280" height="1280" xmlns="http://www.w3.org/2000/svg">
<path transform="translate(0)" d="m0 0h1030v824h-1030z" fill="#FEFEFE"/>
<path transform="translate(496,38)" d="m0 0 2 1v657l-4-2-94-94v-466z" fill="#0053A4"/>
<path transform="translate(512,38)" d="m0 0 4 2v2l4 2v2h2v2l4 2 2 4h2v2l4 2 2 4h2v2l4 2v2h2v2h2v2l4 2 2 4h2v2l4 2v2h2v2h2v2l4 2 2 4h2v2l4 2 2 4h2v2l4 2 2 4h2v2l4 2 2 4h2v2l4 2 4 4v2l4 2 4 5v465l-40 40h-2l-2 4-44 44h-2l-2 4-4 4h-2z" fill="#0053A4"/>
<path transform="translate(738,397)" d="m0 0 10 3 108 42v4l-5 5-6 7-8 7-6 7-7 6-1 2h-2v2l-5 4-1 2h-2v2l-5 4-1 2h-2v2l-7 6-5 5-2 3h-2v2l-5 4-1 2h-2v2l-8 7-18 18-4 5h-2v2l-7 6-10 10-5 6h-2v2l-7 6-24 24-4 5-3 3h-2v2l-8 7-20 20-2 3h-2v2l-5 4-1 2h-2v2l-8 7-6 7h-2v2l-7 6-14 14-1 2h-2v2l-7 6-10 10-5 6h-2v2l-7 6-46 46-1 2h-2v2l-5 4-5 5-4 5-5 4-4-1-9-9v-2l-4-2-4-4v-2l-4-2-4-4v-2l-4-2-44-44v-2l-4-2-12-12v-2l-4-2-4-4v-2l-4-2-36-36v-2l-4-2-4-4v-2l-4-2-4-4v-2l-4-2-4-4v-2l-4-2-36-36v-2l-4-2-60-60v-2l-4-2-52-52v-2l-4-2-25-25 2-3 28-11 39-15 33-13 13-5h4v34l-60 24 6 7 286 286 4-1 291-291-1-2-52-20-8-4v-33z" fill="#000306"/>
<path transform="translate(383,151)" d="m0 0h3v431l-2 2-96-96v-242z" fill="#0053A4"/>
<path transform="translate(624,151)" d="m0 0 4 1 12 12v2h2v2l4 2 2 4h2v2l4 2 2 4h2v2l4 2 2 4h2v2l4 2v2h2v2h2v2l4 2 2 4h2v2l4 2 2 4h2v2l4 2 2 4h2v2l4 2 2 4h2v2l4 2 2 4h2v2h2v2l4 2 2 3v241l-8 8h-2l-2 4-20 20h-2l-2 4-20 20h-2l-2 4-36 36h-2z" fill="#0053A4"/>
<path transform="translate(317,367)" d="m0 0h11l8 4 5 6 2 4v12l-4 7-7 6-7 2h-8l-1-4z" fill="#0053A4"/>
<path transform="translate(652,369)" d="m0 0h2v18h26v-18l2 1v41l-2 1v-17h-26v17h-2z" fill="#FEFEFE"/>
<path transform="translate(310,365)" d="m0 0h16l10 4 6 7 3 7v9l-5 10-8 6-4 1h-13v-42h-4v42h-1zm7 2-1 40 1 1h8l9-3 8-9 1-3v-12l-5-8-7-5-3-1z" fill="#FEFEFE"/>
<path transform="translate(447,366)" d="m0 0h2l13 33 3 7-1 3-4-9-11-27v-3l-2 1 1 6 12 31-2 1-11-27-1-5h-2l-3 10-8 21-2 1 2-9 13-33z" fill="#FEFEFE"/>
<path transform="translate(654,389)" d="m0 0h26v4h-26z" fill="#0053A4"/>
<path transform="translate(546,372)" d="m0 0h27v2h-13v36h-1v-36h-14z" fill="#FEFEFE"/>
</svg>
